<?xml version="1.0" encoding="utf-8"?><svg xmlns="http://www.w3.org/2000/svg" xmlns:xlink="http://www.w3.org/1999/xlink"><symbol fill="none" viewBox="0 0 24 24" id="24-support" xmlns="http://www.w3.org/2000/svg"><path d="M18 18.86h-.76c-.8 0-1.56.31-2.12.87l-1.71 1.69c-.78.77-2.05.77-2.83 0l-1.71-1.69c-.56-.56-1.33-.87-2.12-.87H6c-1.66 0-3-1.33-3-2.97V4.98c0-1.64 1.34-2.97 3-2.97h12c1.66 0 3 1.33 3 2.97v10.91c0 1.63-1.34 2.97-3 2.97Z" stroke="#414141" stroke-width="1.5" stroke-miterlimit="10" stroke-linecap="round" stroke-linejoin="round"/><path d="M7 9.16c0-.93.76-1.69 1.69-1.69.93 0 1.69.76 1.69 1.69 0 1.88-2.67 2.08-3.26 3.87-.12.37.19.74.58.74h2.68M16.04 13.76V8.05a.58.58 0 0 0-.42-.56.593.593 0 0 0-.66.25c-.72 1.16-1.5 2.48-2.18 3.64-.11.19-.11.44 0 .63s.32.31.55.31H17" stroke="#414141" stroke-width="1.5" stroke-linecap="round" stroke-linejoin="round"/></symbol><symbol fill="none" viewBox="0 0 22 22" id="call-calling" xmlns="http://www.w3.org/2000/svg"><path d="M20.97 17.33c0 .36-.08.73-.25 1.09-.17.36-.39.7-.68 1.02-.49.54-1.03.93-1.64 1.18-.6.25-1.25.38-1.95.38-1.02 0-2.11-.24-3.26-.73s-2.3-1.15-3.44-1.98a28.75 28.75 0 0 1-3.28-2.8 28.414 28.414 0 0 1-2.79-3.27c-.82-1.14-1.48-2.28-1.96-3.41C1.24 7.67 1 6.58 1 5.54c0-.68.12-1.33.36-1.93.24-.61.62-1.17 1.15-1.67C3.15 1.31 3.85 1 4.59 1c.28 0 .56.06.81.18.26.12.49.3.67.56l2.32 3.27c.18.25.31.48.4.7.09.21.14.42.14.61 0 .24-.07.48-.21.71-.13.23-.32.47-.56.71l-.76.79c-.11.11-.16.24-.16.4 0 .08.01.15.03.23.03.08.06.14.08.2.18.33.49.76.93 1.28.45.52.93 1.05 1.45 1.58.54.53 1.06 1.02 1.59 1.47.52.44.95.74 1.29.92.05.02.11.05.18.08.08.03.16.04.25.04.17 0 .3-.06.41-.17l.76-.75c.25-.25.49-.44.72-.56.23-.14.46-.21.71-.21.19 0 .39.04.61.13.22.09.45.22.7.39l3.31 2.35c.26.18.44.39.55.64.1.25.16.5.16.78Z" stroke="#414141" stroke-width="1.5" stroke-miterlimit="10"/><path d="M17.5 8c0-.6-.47-1.52-1.17-2.27-.64-.69-1.49-1.23-2.33-1.23M21 8c0-3.87-3.13-7-7-7" stroke="#414141" stroke-width="1.5" stroke-linecap="round" stroke-linejoin="round"/></symbol><symbol fill="none" viewBox="0 0 40 43" id="file" xmlns="http://www.w3.org/2000/svg"><path d="M15.993 23.372v-1.285c0-.362.281-.643.643-.643H30.78c.361 0 .643.281.643.643v1.285a.635.635 0 0 1-.643.643H16.636a.635.635 0 0 1-.643-.643ZM16.636 26.587H30.78c.361 0 .643.281.643.643v1.285a.635.635 0 0 1-.643.643H16.636a.635.635 0 0 1-.643-.643V27.23c0-.362.281-.643.643-.643ZM16.636 31.73H30.78c.361 0 .643.28.643.642v1.286a.635.635 0 0 1-.643.643H16.636a.635.635 0 0 1-.643-.643v-1.286c0-.361.281-.642.643-.642Z" fill="#fff"/><path fill-rule="evenodd" clip-rule="evenodd" d="M8.279 15.315a7.415 7.415 0 1 1 7.173-9.3h12.755c1.065 0 2.552.623 3.295 1.366l6.268 6.268c.743.744 1.366 2.23 1.366 3.295v23.143a1.93 1.93 0 0 1-1.928 1.928h-27a1.93 1.93 0 0 1-1.93-1.928V15.315Zm2.571-.458a7.421 7.421 0 0 0 4.813-6.27h10.616v8.357a1.93 1.93 0 0 0 1.928 1.928h8.358v20.572H10.85V14.857Zm18.824-5.668c-.14-.14-.482-.321-.824-.442v7.554h7.554c-.12-.341-.301-.683-.442-.824L29.674 9.19ZM9.279 8.9h4v-2h-4v-4h-2v4h-4v2h4v4h2v-4Z" fill="#fff"/></symbol><symbol fill="none" viewBox="0 0 24 24" id="global" xmlns="http://www.w3.org/2000/svg"><path d="M12 22c5.523 0 10-4.477 10-10S17.523 2 12 2 2 6.477 2 12s4.477 10 10 10Z" stroke="#414141" stroke-width="1.5" stroke-linecap="round" stroke-linejoin="round"/><path d="M8 3h1a28.424 28.424 0 0 0 0 18H8M15 3a28.424 28.424 0 0 1 0 18" stroke="#414141" stroke-width="1.5" stroke-linecap="round" stroke-linejoin="round"/><path d="M3 16v-1a28.424 28.424 0 0 0 18 0v1M3 9a28.424 28.424 0 0 1 18 0" stroke="#414141" stroke-width="1.5" stroke-linecap="round" stroke-linejoin="round"/></symbol><symbol fill="none" viewBox="0 0 24 24" id="like" xmlns="http://www.w3.org/2000/svg"><path d="m7.48 18.35 3.1 2.4c.4.4 1.3.6 1.9.6h3.8c1.2 0 2.5-.9 2.8-2.1l2.4-7.3c.5-1.4-.4-2.6-1.9-2.6h-4c-.6 0-1.1-.5-1-1.2l.5-3.2c.2-.9-.4-1.9-1.3-2.2-.8-.3-1.8.1-2.2.7l-4.1 6.1" stroke="#414141" stroke-width="1.5" stroke-miterlimit="10"/><path d="M2.38 18.35v-9.8c0-1.4.6-1.9 2-1.9h1c1.4 0 2 .5 2 1.9v9.8c0 1.4-.6 1.9-2 1.9h-1c-1.4 0-2-.5-2-1.9Z" stroke="#414141" stroke-width="1.5" stroke-linecap="round" stroke-linejoin="round"/></symbol><symbol fill="none" viewBox="0 0 51 51" id="logo" xmlns="http://www.w3.org/2000/svg"><path fill-rule="evenodd" clip-rule="evenodd" d="M51 25.5C51 39.583 39.583 51 25.5 51S0 39.583 0 25.5 11.417 0 25.5 0 51 11.417 51 25.5ZM25.5 40.8c8.45 0 15.3-6.85 15.3-15.3 0-8.45-6.85-15.3-15.3-15.3-8.45 0-15.3 6.85-15.3 15.3 0 8.45 6.85 15.3 15.3 15.3Z" fill="#414141"/><path d="m24 31 14.125 20H51L36.875 31H24Z" fill="#B9F04A"/></symbol><symbol fill="none" viewBox="0 0 31 32" id="percent" xmlns="http://www.w3.org/2000/svg"><path d="M25.786 23.964a2.59 2.59 0 0 1-2.572 2.572 2.59 2.59 0 0 1-2.571-2.572 2.59 2.59 0 0 1 2.571-2.571 2.59 2.59 0 0 1 2.572 2.571ZM10.357 8.536a2.59 2.59 0 0 1-2.571 2.571 2.59 2.59 0 0 1-2.572-2.571 2.59 2.59 0 0 1 2.572-2.572 2.59 2.59 0 0 1 2.571 2.572ZM30.93 23.964a7.716 7.716 0 0 0-7.715-7.714 7.716 7.716 0 0 0-7.714 7.714 7.716 7.716 0 0 0 7.714 7.715 7.716 7.716 0 0 0 7.715-7.715ZM29 2.107c0-.703-.583-1.286-1.286-1.286H24.5c-.402 0-.784.201-1.025.523L2.261 29.629c-.16.221-.261.483-.261.764 0 .703.583 1.286 1.286 1.286H6.5c.402 0 .783-.201 1.025-.523L28.739 2.871c.16-.221.261-.483.261-.764ZM15.5 8.536A7.716 7.716 0 0 0 7.786.82 7.716 7.716 0 0 0 .07 8.536a7.716 7.716 0 0 0 7.715 7.714A7.716 7.716 0 0 0 15.5 8.536Z" fill="#fff"/></symbol><symbol fill="none" viewBox="0 0 35 35" id="search" xmlns="http://www.w3.org/2000/svg"><path d="M23.929 14.929c0 4.962-4.038 9-9 9s-9-4.038-9-9 4.038-9 9-9 9 4.038 9 9Zm10.285 16.714c0-.683-.281-1.346-.743-1.808l-6.89-6.89a14.11 14.11 0 0 0 2.49-8.016C29.071 7.114 22.743.786 14.93.786 7.114.786.786 7.114.786 14.929c0 7.814 6.328 14.142 14.143 14.142a14.11 14.11 0 0 0 8.015-2.49l6.89 6.87a2.522 2.522 0 0 0 1.809.763 2.59 2.59 0 0 0 2.571-2.571Z" fill="#fff"/></symbol><symbol fill="none" viewBox="0 0 90 77" id="support" xmlns="http://www.w3.org/2000/svg"><path d="M63.098 54.5c-1.155 2-4.041 2-5.196 0L37.55 19.25c-1.154-2 .289-4.5 2.598-4.5h40.704c2.309 0 3.752 2.5 2.598 4.5L63.098 54.5Z" fill="url(#ia)"/><path d="M32.098 72.5c-1.155 2-4.041 2-5.196 0L6.55 37.25c-1.154-2 .289-4.5 2.598-4.5h40.704c2.309 0 3.752 2.5 2.598 4.5L32.098 72.5Z" fill="url(#ib)"/><path d="M47.12 64.31c-1.145 2.05-4.095 2.05-5.24 0L21.445 27.712c-1.116-2 .33-4.463 2.62-4.463h40.872c2.29 0 3.736 2.463 2.62 4.463L47.119 64.31Z" fill="url(#ic)"/><defs><linearGradient id="ia" x1="60.5" y1="59" x2="60.5" y2="14.5" gradientUnits="userSpaceOnUse"><stop stop-color="#DFFEA0" stop-opacity="0"/><stop offset="1" stop-color="#DFFEA0"/></linearGradient><linearGradient id="ib" x1="29.5" y1="77" x2="29.5" y2="32.5" gradientUnits="userSpaceOnUse"><stop stop-color="#DFFEA0" stop-opacity="0"/><stop offset="1" stop-color="#DFFEA0"/></linearGradient><linearGradient id="ic" x1="44.5" y1="69" x2="44.5" y2="22.991" gradientUnits="userSpaceOnUse"><stop stop-color="#DFFEA0" stop-opacity="0"/><stop offset="1" stop-color="#DFFEA0"/></linearGradient></defs></symbol></svg>