<?xml version="1.0" encoding="utf-8"?>
<svg viewBox="0 0 40 43" xmlns="http://www.w3.org/2000/svg" xmlns:xlink="http://www.w3.org/1999/xlink">
    <style>:root>svg{display:none}:root>svg:target{display:block}</style>
    <svg fill="none" viewBox="0 0 40 43" id="file" xmlns="http://www.w3.org/2000/svg">
        <path d="M15.993 23.372v-1.285c0-.362.281-.643.643-.643H30.78c.361 0 .643.281.643.643v1.285a.635.635 0 0 1-.643.643H16.636a.635.635 0 0 1-.643-.643ZM16.636 26.587H30.78c.361 0 .643.281.643.643v1.285a.635.635 0 0 1-.643.643H16.636a.635.635 0 0 1-.643-.643V27.23c0-.362.281-.643.643-.643ZM16.636 31.73H30.78c.361 0 .643.28.643.642v1.286a.635.635 0 0 1-.643.643H16.636a.635.635 0 0 1-.643-.643v-1.286c0-.361.281-.642.643-.642Z"
              fill="#fff"/>
        <path fill-rule="evenodd" clip-rule="evenodd"
              d="M8.279 15.315a7.415 7.415 0 1 1 7.173-9.3h12.755c1.065 0 2.552.623 3.295 1.366l6.268 6.268c.743.744 1.366 2.23 1.366 3.295v23.143a1.93 1.93 0 0 1-1.928 1.928h-27a1.93 1.93 0 0 1-1.93-1.928V15.315Zm2.571-.458a7.421 7.421 0 0 0 4.813-6.27h10.616v8.357a1.93 1.93 0 0 0 1.928 1.928h8.358v20.572H10.85V14.857Zm18.824-5.668c-.14-.14-.482-.321-.824-.442v7.554h7.554c-.12-.341-.301-.683-.442-.824L29.674 9.19ZM9.279 8.9h4v-2h-4v-4h-2v4h-4v2h4v4h2v-4Z"
              fill="#fff"/>
    </svg>
    <svg fill="none" viewBox="0 0 31 32" id="percent" xmlns="http://www.w3.org/2000/svg">
        <path d="M25.786 23.964a2.59 2.59 0 0 1-2.572 2.572 2.59 2.59 0 0 1-2.571-2.572 2.59 2.59 0 0 1 2.571-2.571 2.59 2.59 0 0 1 2.572 2.571ZM10.357 8.536a2.59 2.59 0 0 1-2.571 2.571 2.59 2.59 0 0 1-2.572-2.571 2.59 2.59 0 0 1 2.572-2.572 2.59 2.59 0 0 1 2.571 2.572ZM30.93 23.964a7.716 7.716 0 0 0-7.715-7.714 7.716 7.716 0 0 0-7.714 7.714 7.716 7.716 0 0 0 7.714 7.715 7.716 7.716 0 0 0 7.715-7.715ZM29 2.107c0-.703-.583-1.286-1.286-1.286H24.5c-.402 0-.784.201-1.025.523L2.261 29.629c-.16.221-.261.483-.261.764 0 .703.583 1.286 1.286 1.286H6.5c.402 0 .783-.201 1.025-.523L28.739 2.871c.16-.221.261-.483.261-.764ZM15.5 8.536A7.716 7.716 0 0 0 7.786.82 7.716 7.716 0 0 0 .07 8.536a7.716 7.716 0 0 0 7.715 7.714A7.716 7.716 0 0 0 15.5 8.536Z"
              fill="#fff"/>
    </svg>
    <svg fill="none" viewBox="0 0 35 35" id="search" xmlns="http://www.w3.org/2000/svg">
        <path d="M23.929 14.929c0 4.962-4.038 9-9 9s-9-4.038-9-9 4.038-9 9-9 9 4.038 9 9Zm10.285 16.714c0-.683-.281-1.346-.743-1.808l-6.89-6.89a14.11 14.11 0 0 0 2.49-8.016C29.071 7.114 22.743.786 14.93.786 7.114.786.786 7.114.786 14.929c0 7.814 6.328 14.142 14.143 14.142a14.11 14.11 0 0 0 8.015-2.49l6.89 6.87a2.522 2.522 0 0 0 1.809.763 2.59 2.59 0 0 0 2.571-2.571Z"
              fill="#fff"/>
    </svg>
</svg>