<svg width="51" height="51" viewBox="0 0 51 51" fill="none" xmlns="http://www.w3.org/2000/svg">
<path fill-rule="evenodd" clip-rule="evenodd" d="M51 25.5C51 39.5833 39.5833 51 25.5 51C11.4167 51 0 39.5833 0 25.5C0 11.4167 11.4167 0 25.5 0C39.5833 0 51 11.4167 51 25.5ZM25.5 40.8C33.9499 40.8 40.8 33.95 40.8 25.5C40.8 17.05 33.9499 10.2 25.5 10.2C17.05 10.2 10.2 17.05 10.2 25.5C10.2 33.95 17.05 40.8 25.5 40.8Z" fill="#414141"/>
<path d="M24 31L38.1253 51H51L36.8746 31H24Z" fill="#B9F04A"/>
</svg>
