<svg width="90" height="77" viewBox="0 0 90 77" fill="none" xmlns="http://www.w3.org/2000/svg">
<path d="M63.0981 54.5C61.9434 56.5 59.0566 56.5 57.9019 54.5L37.5503 19.25C36.3956 17.25 37.839 14.75 40.1484 14.75L80.8516 14.75C83.161 14.75 84.6044 17.25 83.4497 19.25L63.0981 54.5Z" fill="url(#paint0_linear_6_11)"/>
<path d="M32.0981 72.5C30.9434 74.5 28.0566 74.5 26.9019 72.5L6.55033 37.25C5.39563 35.25 6.839 32.75 9.1484 32.75L49.8516 32.75C52.161 32.75 53.6044 35.25 52.4497 37.25L32.0981 72.5Z" fill="url(#paint1_linear_6_11)"/>
<path d="M47.1193 64.3095C45.9746 66.3593 43.0254 66.3593 41.8807 64.3095L21.4443 27.7127C20.3276 25.713 21.7732 23.25 24.0636 23.25L64.9364 23.25C67.2268 23.25 68.6724 25.713 67.5557 27.7127L47.1193 64.3095Z" fill="url(#paint2_linear_6_11)"/>
<defs>
<linearGradient id="paint0_linear_6_11" x1="60.5" y1="59" x2="60.5" y2="14.5" gradientUnits="userSpaceOnUse">
<stop stop-color="#DFFEA0" stop-opacity="0"/>
<stop offset="1" stop-color="#DFFEA0"/>
</linearGradient>
<linearGradient id="paint1_linear_6_11" x1="29.5" y1="77" x2="29.5" y2="32.5" gradientUnits="userSpaceOnUse">
<stop stop-color="#DFFEA0" stop-opacity="0"/>
<stop offset="1" stop-color="#DFFEA0"/>
</linearGradient>
<linearGradient id="paint2_linear_6_11" x1="44.5" y1="69" x2="44.5" y2="22.9915" gradientUnits="userSpaceOnUse">
<stop stop-color="#DFFEA0" stop-opacity="0"/>
<stop offset="1" stop-color="#DFFEA0"/>
</linearGradient>
</defs>
</svg>
